<svg width="174" height="83" viewBox="0 0 174 83" fill="none" xmlns="http://www.w3.org/2000/svg">
<path d="M72.9395 52.748C71.4495 52.748 70.1445 52.373 69.0245 51.623C67.9045 50.873 67.0295 49.853 66.3995 48.563C65.7795 47.273 65.4695 45.818 65.4695 44.198C65.4695 42.548 65.7845 41.083 66.4145 39.803C67.0545 38.513 67.9495 37.498 69.0995 36.758C70.2495 36.018 71.5995 35.648 73.1495 35.648C74.6895 35.648 75.9845 36.023 77.0345 36.773C78.0845 37.523 78.8795 38.543 79.4195 39.833C79.9595 41.123 80.2295 42.578 80.2295 44.198C80.2295 45.818 79.9545 47.273 79.4045 48.563C78.8645 49.853 78.0545 50.873 76.9745 51.623C75.8945 52.373 74.5495 52.748 72.9395 52.748ZM73.5995 49.118C74.5095 49.118 75.2345 48.913 75.7745 48.503C76.3245 48.093 76.7195 47.518 76.9595 46.778C77.1995 46.038 77.3195 45.178 77.3195 44.198C77.3195 43.218 77.1995 42.358 76.9595 41.618C76.7195 40.878 76.3345 40.303 75.8045 39.893C75.2845 39.483 74.5995 39.278 73.7495 39.278C72.8395 39.278 72.0895 39.503 71.4995 39.953C70.9195 40.393 70.4895 40.988 70.2095 41.738C69.9295 42.478 69.7895 43.298 69.7895 44.198C69.7895 45.108 69.9245 45.938 70.1945 46.688C70.4645 47.428 70.8795 48.018 71.4395 48.458C71.9995 48.898 72.7195 49.118 73.5995 49.118ZM77.3195 52.298V41.198H76.8095V30.698H80.9195V52.298H77.3195ZM85.4195 33.848V30.248H89.4995V33.848H85.4195ZM85.4195 52.298V36.098H89.4995V52.298H85.4195ZM98.3765 52.298L92.4965 36.098H96.5765L100.416 47.318L104.256 36.098H108.336L102.456 52.298H98.3765ZM111.347 33.848V30.248H115.427V33.848H111.347ZM111.347 52.298V36.098H115.427V52.298H111.347ZM121.529 52.298V34.898C121.529 34.478 121.549 34.063 121.589 33.653C121.639 33.243 121.734 32.853 121.874 32.483C122.014 32.103 122.234 31.753 122.534 31.433C122.864 31.073 123.224 30.813 123.614 30.653C124.004 30.483 124.409 30.373 124.829 30.323C125.259 30.273 125.679 30.248 126.089 30.248H128.159V32.108H126.239C125.399 32.108 124.769 32.313 124.349 32.723C123.939 33.133 123.734 33.778 123.734 34.658V52.298H121.529ZM118.724 37.988V36.098H128.159V37.988H118.724ZM134.755 52.748C133.535 52.748 132.51 52.528 131.68 52.088C130.86 51.648 130.245 51.063 129.835 50.333C129.425 49.603 129.22 48.808 129.22 47.948C129.22 47.068 129.395 46.318 129.745 45.698C130.105 45.068 130.59 44.553 131.2 44.153C131.82 43.753 132.535 43.448 133.345 43.238C134.165 43.038 135.07 42.863 136.06 42.713C137.06 42.553 138.035 42.418 138.985 42.308C139.945 42.188 140.785 42.073 141.505 41.963L140.725 42.443C140.755 40.843 140.445 39.658 139.795 38.888C139.145 38.118 138.015 37.733 136.405 37.733C135.295 37.733 134.355 37.983 133.585 38.483C132.825 38.983 132.29 39.773 131.98 40.853L129.835 40.223C130.205 38.773 130.95 37.648 132.07 36.848C133.19 36.048 134.645 35.648 136.435 35.648C137.915 35.648 139.17 35.928 140.2 36.488C141.24 37.038 141.975 37.838 142.405 38.888C142.605 39.358 142.735 39.883 142.795 40.463C142.855 41.043 142.885 41.633 142.885 42.233V52.298H140.92V48.233L141.49 48.473C140.94 49.863 140.085 50.923 138.925 51.653C137.765 52.383 136.375 52.748 134.755 52.748ZM135.01 50.843C136.04 50.843 136.94 50.658 137.71 50.288C138.48 49.918 139.1 49.413 139.57 48.773C140.04 48.123 140.345 47.393 140.485 46.583C140.605 46.063 140.67 45.493 140.68 44.873C140.69 44.243 140.695 43.773 140.695 43.463L141.535 43.898C140.785 43.998 139.97 44.098 139.09 44.198C138.22 44.298 137.36 44.413 136.51 44.543C135.67 44.673 134.91 44.828 134.23 45.008C133.77 45.138 133.325 45.323 132.895 45.563C132.465 45.793 132.11 46.103 131.83 46.493C131.56 46.883 131.425 47.368 131.425 47.948C131.425 48.418 131.54 48.873 131.77 49.313C132.01 49.753 132.39 50.118 132.91 50.408C133.44 50.698 134.14 50.843 135.01 50.843ZM152.834 52.733C150.934 52.733 149.369 52.323 148.139 51.503C146.919 50.683 146.169 49.543 145.889 48.083L148.139 47.708C148.379 48.628 148.924 49.363 149.774 49.913C150.634 50.453 151.694 50.723 152.954 50.723C154.184 50.723 155.154 50.468 155.864 49.958C156.574 49.438 156.929 48.733 156.929 47.843C156.929 47.343 156.814 46.938 156.584 46.628C156.364 46.308 155.909 46.013 155.219 45.743C154.529 45.473 153.499 45.153 152.129 44.783C150.659 44.383 149.509 43.983 148.679 43.583C147.849 43.183 147.259 42.723 146.909 42.203C146.559 41.673 146.384 41.028 146.384 40.268C146.384 39.348 146.644 38.543 147.164 37.853C147.684 37.153 148.404 36.613 149.324 36.233C150.244 35.843 151.314 35.648 152.534 35.648C153.754 35.648 154.844 35.848 155.804 36.248C156.774 36.638 157.554 37.188 158.144 37.898C158.734 38.608 159.084 39.433 159.194 40.373L156.944 40.778C156.794 39.828 156.319 39.078 155.519 38.528C154.729 37.968 153.724 37.678 152.504 37.658C151.354 37.628 150.419 37.848 149.699 38.318C148.979 38.778 148.619 39.393 148.619 40.163C148.619 40.593 148.749 40.963 149.009 41.273C149.269 41.573 149.739 41.858 150.419 42.128C151.109 42.398 152.089 42.693 153.359 43.013C154.849 43.393 156.019 43.793 156.869 44.213C157.719 44.633 158.324 45.128 158.684 45.698C159.044 46.268 159.224 46.973 159.224 47.813C159.224 49.343 158.654 50.548 157.514 51.428C156.384 52.298 154.824 52.733 152.834 52.733ZM171.371 52.298C170.461 52.488 169.561 52.563 168.671 52.523C167.791 52.483 167.001 52.293 166.301 51.953C165.611 51.613 165.086 51.083 164.726 50.363C164.436 49.763 164.276 49.158 164.246 48.548C164.226 47.928 164.216 47.223 164.216 46.433V31.598H166.406V46.343C166.406 47.023 166.411 47.593 166.421 48.053C166.441 48.503 166.546 48.903 166.736 49.253C167.096 49.923 167.666 50.323 168.446 50.453C169.236 50.583 170.211 50.553 171.371 50.363V52.298ZM160.751 37.988V36.098H171.371V37.988H160.751Z" fill="black"/>
<path d="M0.078125 57.939L0.634628 24.3456L26.7589 36.5064L26.6097 70.6488L0.078125 57.939Z" fill="#FFC04D"/>
<path d="M52.7584 57.939L52.7588 24.3646L26.6056 36.7209V70.6573L52.7584 57.939Z" fill="black"/>
<path d="M53.0155 24.3144L26.8627 11.9542L0.709961 24.3144L26.8627 36.6745L53.0155 24.3144Z" fill="#F27700"/>
</svg>
